<svg xmlns="http://www.w3.org/2000/svg" width="1460" height="630" viewBox="0 0 1460 630">
<defs>
  <filter id="glowBlue" x="-50%" y="-50%" width="200%" height="200%"><feGaussianBlur stdDeviation="5" result="b"/><feMerge><feMergeNode in="b"/><feMergeNode in="SourceGraphic"/></feMerge></filter>
  <filter id="glowGold" x="-50%" y="-50%" width="200%" height="200%"><feGaussianBlur stdDeviation="4" result="b"/><feMerge><feMergeNode in="b"/><feMergeNode in="SourceGraphic"/></feMerge></filter>
  <linearGradient id="blueFace" x1="0" y1="0" x2="1" y2="1"><stop offset="0" stop-color="#398bea" stop-opacity=".72"/><stop offset="1" stop-color="#0e3158" stop-opacity=".22"/></linearGradient>
  <linearGradient id="goldFace" x1="0" y1="0" x2="1" y2="1"><stop offset="0" stop-color="#f0a83e" stop-opacity=".65"/><stop offset="1" stop-color="#5f3710" stop-opacity=".18"/></linearGradient>
  <radialGradient id="orb"><stop offset="0" stop-color="#fff"/><stop offset=".18" stop-color="#79c6ff"/><stop offset="1" stop-color="#398bea" stop-opacity="0"/></radialGradient>
  
</defs>
<polygon points="130,420 520,420 580,382 190,382" stroke="#8a8f95" fill="rgba(100,103,108,.20)" stroke-width="2" opacity="0.65"/><text x="330" y="406" fill="#d1d4d7" font-family="Arial" font-size="17" font-weight="500" text-anchor="middle" opacity="1" letter-spacing="0">IAM  (Identity)</text><polygon points="130,335 520,335 580,297 190,297" stroke="#8a8f95" fill="rgba(100,103,108,.20)" stroke-width="2" opacity="0.65"/><text x="330" y="321" fill="#d1d4d7" font-family="Arial" font-size="17" font-weight="500" text-anchor="middle" opacity="1" letter-spacing="0">etcd  (Consensus)</text><polygon points="130,250 520,250 580,212 190,212" stroke="#8a8f95" fill="rgba(100,103,108,.20)" stroke-width="2" opacity="0.65"/><text x="330" y="236" fill="#d1d4d7" font-family="Arial" font-size="17" font-weight="500" text-anchor="middle" opacity="1" letter-spacing="0">ECR  (Containers)</text><polygon points="130,165 520,165 580,127 190,127" stroke="#8a8f95" fill="rgba(100,103,108,.20)" stroke-width="2" opacity="0.65"/><text x="330" y="151" fill="#d1d4d7" font-family="Arial" font-size="17" font-weight="500" text-anchor="middle" opacity="1" letter-spacing="0">S3  (Object Storage)</text><line x1="585" y1="155" x2="845" y2="300" stroke="#f0a83e" stroke-width="4" opacity="0.72"/><polygon points="845,292 863,300 845,308" stroke="#f0a83e" fill="#f0a83e" stroke-width="1" opacity="1"/><line x1="585" y1="240" x2="845" y2="300" stroke="#f0a83e" stroke-width="4" opacity="0.72"/><polygon points="845,292 863,300 845,308" stroke="#f0a83e" fill="#f0a83e" stroke-width="1" opacity="1"/><line x1="585" y1="325" x2="845" y2="300" stroke="#f0a83e" stroke-width="4" opacity="0.72"/><polygon points="845,292 863,300 845,308" stroke="#f0a83e" fill="#f0a83e" stroke-width="1" opacity="1"/><line x1="585" y1="410" x2="845" y2="300" stroke="#f0a83e" stroke-width="4" opacity="0.72"/><polygon points="845,292 863,300 845,308" stroke="#f0a83e" fill="#f0a83e" stroke-width="1" opacity="1"/><polygon points="1030,175 1137.5,237.5 1030,300 922.5,237.5" stroke="#398bea" fill="url(#blueFace)" stroke-width="1.4" opacity="0.95"/><polygon points="922.5,237.5 1030,300 1030,425 922.5,362.5" stroke="#398bea" fill="url(#blueFace)" stroke-width="1.4" opacity="0.82"/><polygon points="1137.5,237.5 1030,300 1030,425 1137.5,362.5" stroke="#398bea" fill="url(#blueFace)" stroke-width="1.4" opacity="0.72"/><text x="1030" y="300" fill="#f4f5f6" font-family="monospace" font-size="25" font-weight="700" text-anchor="middle" opacity="1" letter-spacing="0">kappa</text><text x="1030" y="334" fill="#f4f5f6" font-family="monospace" font-size="25" font-weight="700" text-anchor="middle" opacity="1" letter-spacing="0">registry</text><text x="1030" y="68" fill="#f4f5f6" font-family="Arial" font-size="22" font-weight="600" text-anchor="middle" opacity="1" letter-spacing="0">Native OCI</text><line x1="1030" y1="175" x2="1030" y2="80" stroke="#f0a83e" stroke-width="3" opacity="0.75"/><text x="1280" y="300" fill="#f4f5f6" font-family="Arial" font-size="22" font-weight="600" text-anchor="middle" opacity="1" letter-spacing="0">S3 projection</text><line x1="1030" y1="300" x2="1280" y2="300" stroke="#f0a83e" stroke-width="3" opacity="0.75"/><text x="1030" y="560" fill="#f4f5f6" font-family="Arial" font-size="22" font-weight="600" text-anchor="middle" opacity="1" letter-spacing="0">etcd projection</text><line x1="1030" y1="420" x2="1030" y2="542" stroke="#f0a83e" stroke-width="3" opacity="0.75"/><rect x="1120" y="500" width="240" height="48" rx="3" stroke="#f0a83e" fill="rgba(240,168,62,.08)" stroke-width="1" opacity="0.6"/><text x="1240" y="530" fill="#f0a83e" font-family="monospace" font-size="12" font-weight="650" text-anchor="middle" opacity="1" letter-spacing="0">ROADMAP PROJECTION</text>
</svg>