<svg xmlns="http://www.w3.org/2000/svg" width="1460" height="470" viewBox="0 0 1460 470">
<defs>
  <filter id="glowBlue" x="-50%" y="-50%" width="200%" height="200%"><feGaussianBlur stdDeviation="5" result="b"/><feMerge><feMergeNode in="b"/><feMergeNode in="SourceGraphic"/></feMerge></filter>
  <filter id="glowGold" x="-50%" y="-50%" width="200%" height="200%"><feGaussianBlur stdDeviation="4" result="b"/><feMerge><feMergeNode in="b"/><feMergeNode in="SourceGraphic"/></feMerge></filter>
  <linearGradient id="blueFace" x1="0" y1="0" x2="1" y2="1"><stop offset="0" stop-color="#398bea" stop-opacity=".72"/><stop offset="1" stop-color="#0e3158" stop-opacity=".22"/></linearGradient>
  <linearGradient id="goldFace" x1="0" y1="0" x2="1" y2="1"><stop offset="0" stop-color="#f0a83e" stop-opacity=".65"/><stop offset="1" stop-color="#5f3710" stop-opacity=".18"/></linearGradient>
  <radialGradient id="orb"><stop offset="0" stop-color="#fff"/><stop offset=".18" stop-color="#79c6ff"/><stop offset="1" stop-color="#398bea" stop-opacity="0"/></radialGradient>
  
</defs>
<line x1="730" y1="20" x2="730" y2="450" stroke="#55606c" stroke-width="1" opacity="0.55"/><text x="345" y="42" fill="#6f747a" font-family="Arial" font-size="16" font-weight="500" text-anchor="middle" opacity="1" letter-spacing="0">THE FILE</text><text x="1100" y="42" fill="#8b9096" font-family="Arial" font-size="16" font-weight="500" text-anchor="middle" opacity="1" letter-spacing="0">THE OBJECT</text><circle cx="85" cy="260" r="46" stroke="#398bea" fill="#0d3157" stroke-width="2" opacity="0.9"/><text x="85" y="268" fill="#a9d9ff" font-family="Arial" font-size="22" font-weight="650" text-anchor="middle" opacity="1" letter-spacing="0">AI</text><polyline points="130,256.0 145,272.3 160,279.9 175,266.8 190,255.6 205,246.6 220,238.7 235,251.2 250,268.7 265,272.9 280,275.0 295,266.6 310,246.2 325,241.2 340,247.9 355,254.8" fill="none" stroke="#7a8794" stroke-width="3" opacity=".65"/><rect x="365" y="112" width="245" height="290" rx="0" stroke="#70757c" fill="rgba(120,125,132,.38)" stroke-width="2" opacity="0.8"/><line x1="405" y1="112" x2="405" y2="402" stroke="#969aa0" stroke-width="1" opacity="0.25"/><line x1="530" y1="112" x2="530" y2="402" stroke="#969aa0" stroke-width="1" opacity="0.25"/><line x1="365" y1="260" x2="610" y2="260" stroke="#969aa0" stroke-width="1" opacity="0.25"/><circle cx="1025" cy="260" r="128" stroke="#b1bdc9" fill="none" stroke-width="1.4" opacity="0.35"/><circle cx="1025" cy="260" r="113" stroke="#b1bdc9" fill="none" stroke-width="1.4" opacity="0.65"/><circle cx="1025" cy="260" r="93" stroke="#b1bdc9" fill="none" stroke-width="1.4" opacity="0.4"/><polygon points="1025,170 1093.8,210.0 1025,250 956.2,210.0" stroke="#398bea" fill="url(#blueFace)" stroke-width="1.4" opacity="0.95"/><polygon points="956.2,210.0 1025,250 1025,330 956.2,290.0" stroke="#398bea" fill="url(#blueFace)" stroke-width="1.4" opacity="0.82"/><polygon points="1093.8,210.0 1025,250 1025,330 1093.8,290.0" stroke="#398bea" fill="url(#blueFace)" stroke-width="1.4" opacity="0.72"/><text x="855" y="122" fill="#aab2bb" font-family="monospace" font-size="12" font-weight="400" text-anchor="start" opacity="1" letter-spacing="0">IDENTITY</text><text x="1165" y="122" fill="#aab2bb" font-family="monospace" font-size="12" font-weight="400" text-anchor="start" opacity="1" letter-spacing="0">PROVENANCE</text><text x="1154" y="408" fill="#aab2bb" font-family="monospace" font-size="12" font-weight="400" text-anchor="start" opacity="1" letter-spacing="0">PERMISSIONS</text><line x1="913" y1="130" x2="960" y2="178" stroke="#7b8794" stroke-width="1" opacity="0.7"/><line x1="1158" y1="132" x2="1095" y2="183" stroke="#7b8794" stroke-width="1" opacity="0.7"/><line x1="1150" y1="395" x2="1098" y2="340" stroke="#7b8794" stroke-width="1" opacity="0.7"/><line x1="1108" y1="260" x2="1320" y2="260" stroke="#f0a83e" stroke-width="11" opacity="0.8"/><polygon points="1160,247 1250,247 1275,260 1250,273 1160,273" stroke="#f0a83e" fill="url(#goldFace)" stroke-width="2" opacity="0.95"/><circle cx="1365" cy="260" r="46" stroke="#398bea" fill="#0d3157" stroke-width="2" opacity="0.9"/><text x="1365" y="268" fill="#a9d9ff" font-family="Arial" font-size="22" font-weight="650" text-anchor="middle" opacity="1" letter-spacing="0">AI</text><text x="345" y="444" fill="#767c83" font-family="Arial" font-size="17" font-weight="400" text-anchor="middle" opacity="1" letter-spacing="0">Bytes without a durable meaning boundary</text><text x="1100" y="444" fill="#d7d9dc" font-family="Arial" font-size="17" font-weight="500" text-anchor="middle" opacity="1" letter-spacing="0">Identity + provenance + permission</text>
</svg>